<?xml version="1.0"?>
<svg xmlns="http://www.w3.org/2000/svg" xmlns:xlink="http://www.w3.org/1999/xlink" xmlns:svgjs="http://svgjs.com/svgjs" version="1.1" width="512" height="512" x="0" y="0" viewBox="0 0 512 512" style="enable-background:new 0 0 512 512" xml:space="preserve" class=""><g><path xmlns="http://www.w3.org/2000/svg" d="m332 60v167c0 24.898438-20.097656 45-45 45h-242c-24.902344 0-45-20.101562-45-45v-167l30-30h272zm0 0" fill="#fbda9e" data-original="#ececf1" style="" class=""/><path xmlns="http://www.w3.org/2000/svg" d="m332 60v167c0 24.898438-20.097656 45-45 45h-120v-242h135zm0 0" fill="#edbd65" data-original="#e2e2e7" style="" class=""/><path xmlns="http://www.w3.org/2000/svg" d="m332 45v15h-332v-15c0-24.902344 20.097656-45 45-45h242c24.902344 0 45 20.097656 45 45zm0 0" fill="#6f48bf" data-original="#ff7816" style="" class=""/><path xmlns="http://www.w3.org/2000/svg" d="m332 45v15h-165v-60h120c24.902344 0 45 20.097656 45 45zm0 0" fill="#421198" data-original="#ff4b00" style="" class=""/><path xmlns="http://www.w3.org/2000/svg" d="m422 182v165c0 24.898438-20.097656 45-45 45h-240c-24.902344 0-45-20.101562-45-45v-165l30-30h270zm0 0" fill="#d80e70" data-original="#ffd400" style="" class=""/><path xmlns="http://www.w3.org/2000/svg" d="m422 182v165c0 24.898438-20.097656 45-45 45h-120v-240h135zm0 0" fill="#a60068" data-original="#fdbf00" style="" class=""/><path xmlns="http://www.w3.org/2000/svg" d="m422 167v15h-330v-15c0-24.902344 20.097656-45 45-45h240c24.902344 0 45 20.097656 45 45zm0 0" fill="#6f48bf" data-original="#ff7816" style="" class=""/><path xmlns="http://www.w3.org/2000/svg" d="m422 167v15h-165v-60h120c24.902344 0 45 20.097656 45 45zm0 0" fill="#421198" data-original="#ff4b00" style="" class=""/><path xmlns="http://www.w3.org/2000/svg" d="m512 302v165c0 24.898438-20.097656 45-45 45h-240c-24.902344 0-45-20.101562-45-45v-165l30-30h270zm0 0" fill="#c09fff" data-original="#46f8ff" style="" class=""/><path xmlns="http://www.w3.org/2000/svg" d="m512 302v165c0 24.898438-20.097656 45-45 45h-120v-240h135zm0 0" fill="#8e7daf" data-original="#00e7f0" style="" class=""/><path xmlns="http://www.w3.org/2000/svg" d="m276.394531 447.605469-30-30c-5.859375-5.859375-5.859375-15.351563 0-21.210938l30-30c5.859375-5.859375 15.351563-5.859375 21.210938 0s5.859375 15.351563 0 21.210938l-19.394531 19.394531 19.394531 19.394531c5.859375 5.859375 5.859375 15.351563 0 21.210938s-15.351563 5.859375-21.210938 0zm0 0" fill="#1c295e" data-original="#bdfdff" style="" class=""/><path xmlns="http://www.w3.org/2000/svg" d="m396.394531 447.605469c-5.859375-5.859375-5.859375-15.351563 0-21.210938l19.394531-19.394531-19.394531-19.394531c-5.859375-5.859375-5.859375-15.351563 0-21.210938s15.351563-5.859375 21.210938 0l30 30c5.859375 5.859375 5.859375 15.351563 0 21.210938l-30 30c-5.859375 5.859375-15.351563 5.859375-21.210938 0zm0 0" fill="#101838" data-original="#9bfbff" style="" class=""/><path xmlns="http://www.w3.org/2000/svg" d="m375.5 383.597656-30 60c-3.898438 7.5-12.597656 10.503906-20.097656 6.902344-7.5-3.898438-10.503906-12.902344-6.902344-20.101562l30-60c3.898438-7.5 12.898438-10.5 20.097656-6.898438 7.5 3.898438 10.503906 12.898438 6.902344 20.097656zm0 0" fill="#1c295e" data-original="#bdfdff" style="" class=""/><path xmlns="http://www.w3.org/2000/svg" d="m375.5 383.597656-28.5 57.003906v-67.203124l1.5-3c3.898438-7.5 12.898438-10.5 20.097656-6.898438 7.5 3.898438 10.503906 12.898438 6.902344 20.097656zm0 0" fill="#101838" data-original="#9bfbff" style="" class=""/><path xmlns="http://www.w3.org/2000/svg" d="m512 287v15h-330v-15c0-24.902344 20.097656-45 45-45h240c24.902344 0 45 20.097656 45 45zm0 0" fill="#6f48bf" data-original="#ff7816" style="" class=""/><path xmlns="http://www.w3.org/2000/svg" d="m512 287v15h-165v-60h120c24.902344 0 45 20.097656 45 45zm0 0" fill="#421198" data-original="#ff4b00" style="" class=""/></g></svg>
