<?xml version="1.0"?>
<svg xmlns="http://www.w3.org/2000/svg" xmlns:xlink="http://www.w3.org/1999/xlink" xmlns:svgjs="http://svgjs.com/svgjs" version="1.1" width="512" height="512" x="0" y="0" viewBox="0 0 140 140" style="enable-background:new 0 0 512 512" xml:space="preserve" class=""><g><circle xmlns="http://www.w3.org/2000/svg" cx="70" cy="70" fill="#674ede" r="64" data-original="#de594e" style="" class=""/><path xmlns="http://www.w3.org/2000/svg" d="m100.4042587 36.4646034h-60.7999878c-2.9099731 0-5.2699585 2.3499756-5.2699585 5.2600098v56.5499229c0 1.4300537.5699463 2.7200928 1.5 3.6601562l-.0100098.0098877.0299683.0200195c.0200195.0200195.0300293.0400391.0499878.0499268l31.9307251 31.9306641c.7202759.0240479 1.4389038.0548096 2.1650391.0548096 35.3463135 0 63.9999924-28.6538086 63.9999924-64 0-.7293701-.0307617-1.4511719-.0549927-2.1746826l-29.8207321-29.8206749c-.960022-.9500733-2.2700196-1.5400391-3.7200318-1.5400391z" opacity=".1" fill="#000000" data-original="#000000" style="" class=""/><path xmlns="http://www.w3.org/2000/svg" d="m34.3373642 98.2767334c0 2.9067383 2.3561401 5.2626953 5.2627563 5.2626953h60.7996826c2.9065552 0 5.2628174-2.355957 5.2628174-5.2626953v-51.012619h-71.3252563z" fill="#ededed" data-original="#ededed" style=""/><path xmlns="http://www.w3.org/2000/svg" d="m100.3998032 36.4605751h-60.7996827c-2.9065552 0-5.2627563 2.3565674-5.2627563 5.2629395v5.7406006h71.3252563v-5.7406006c0-2.9063721-2.3562011-5.2629395-5.2628173-5.2629395z" fill="#344d5b" data-original="#344d5b" style="" class=""/><circle xmlns="http://www.w3.org/2000/svg" cx="95.085" cy="41.72" fill="#674ede" r="1.807" data-original="#de594e" style="" class=""/><circle xmlns="http://www.w3.org/2000/svg" cx="88.417" cy="41.72" fill="#fed35b" r="1.807" data-original="#fed35b" style=""/><circle xmlns="http://www.w3.org/2000/svg" cx="81.75" cy="41.72" fill="#4da0dc" r="1.807" data-original="#4da0dc" style=""/><path xmlns="http://www.w3.org/2000/svg" d="m72.6087875 39.9123993h-26.2090644c-.9982605 0-1.8074913.809227-1.8074913 1.8073578 0 .9983902.8092308 1.807621 1.8074913 1.807621h26.2090645c.9981232 0 1.8073578-.8092308 1.8073578-1.807621-.0000001-.9981308-.8092347-1.8073578-1.8073579-1.8073578z" fill="#ededed" data-original="#ededed" style=""/><path xmlns="http://www.w3.org/2000/svg" d="m43.080154 53.340405h8.275614v6.296663h-8.275614z" fill="#dbd8dd" data-original="#dbd8dd" style=""/><path xmlns="http://www.w3.org/2000/svg" d="m55.493576 53.340405h41.42622v6.296663h-41.42622z" fill="#dbd8dd" data-original="#dbd8dd" style=""/><path xmlns="http://www.w3.org/2000/svg" d="m53.2750587 72.3958359v13.1445541c0 .3933868.0673256.7838211.1991119 1.1545181l1.4095078 3.9640579c.4889717 1.3752823 1.7905655 2.2938461 3.2501335 2.2938461h23.7236481c1.4638138 0 2.768219-.9238892 3.2539825-2.3046951l1.41819-4.0313339c.1292191-.3673477.1952667-.7540283.1952667-1.1436691v-13.0772781z" fill="#41a38e" data-original="#41a38e" style="" class=""/><path xmlns="http://www.w3.org/2000/svg" d="m87.5428925 67.5h-35.0858269c-.8465538 0-1.532814.6863556-1.532814 1.5329056v3.9295349c0 .8463593.6862602 1.5327148 1.532814 1.5327148h35.0858269c.84655 0 1.532814-.6863556 1.532814-1.5327148v-3.9295349c0-.84655-.6862641-1.5329056-1.532814-1.5329056z" fill="#4abba4" data-original="#4abba4" style=""/><g xmlns="http://www.w3.org/2000/svg" fill="#ededed"><path d="m64.7764359 79.088768h-1.9235497c-.3100052 0-.5613136.251152-.5613136.561203v7.3304901c0 .3098907.2513084.5611954.5613136.5611954h1.9235497c.309967 0 .5612793-.2513046.5612793-.5611954v-7.3304901c-.0000001-.310051-.2513123-.561203-.5612793-.561203z" fill="#ededed" data-original="#ededed" style=""/><path d="m70.9617691 79.088768h-1.9235458c-.3100052 0-.5613174.251152-.5613174.561203v7.3304901c0 .3098907.2513123.5611954.5613174.5611954h1.9235458c.3099747 0 .5612793-.2513046.5612793-.5611954v-7.3304901c0-.310051-.2513046-.561203-.5612793-.561203z" fill="#ededed" data-original="#ededed" style=""/><path d="m77.14711 79.088768h-1.9235535c-.3100052 0-.5613174.251152-.5613174.561203v7.3304901c0 .3098907.2513123.5611954.5613174.5611954h1.9235535c.309967 0 .5612717-.2513046.5612717-.5611954v-7.3304901c0-.310051-.2513047-.561203-.5612717-.561203z" fill="#ededed" data-original="#ededed" style=""/></g><path xmlns="http://www.w3.org/2000/svg" d="m78.2034378 68.7452621c-1.2098083 0-2.1905594.9807129-2.1905594 2.1904678 0 1.2099533.980751 2.1906586 2.1905594 2.1906586s2.1905594-.9807053 2.1905594-2.1906586c0-1.2097549-.980751-2.1904678-2.1905594-2.1904678z" fill="#344d5b" data-original="#344d5b" style="" class=""/><path xmlns="http://www.w3.org/2000/svg" d="m89.8742676 82.9197922c.5748596-.574852.5749283-1.5067902.0000381-2.0816803l-10.5465393-10.8826981c-.5748901-.5748901-1.5068359-.5748215-2.0816879.0000305-.574852.5748596-.5749207 1.5067978-.0000305 2.0816879l10.5465393 10.8826981c.5748901.5748902 1.5068283.5748139 2.0816803-.0000381z" fill="#feda6f" data-original="#feda6f" style=""/><path xmlns="http://www.w3.org/2000/svg" d="m61.7965164 68.7452621c1.2098083 0 2.1905632.9807129 2.1905632 2.1904678 0 1.2099533-.9807549 2.1906586-2.1905632 2.1906586-1.2098045 0-2.1905594-.9807053-2.1905594-2.1906586 0-1.2097549.9807549-2.1904678 2.1905594-2.1904678z" fill="#344d5b" data-original="#344d5b" style="" class=""/><path xmlns="http://www.w3.org/2000/svg" d="m50.1256828 82.9197922c-.574852-.574852-.5749207-1.5067902-.0000343-2.0816803l10.5465431-10.8826981c.5748863-.5748901 1.5068321-.5748215 2.0816841.0000305.574852.5748596.5749245 1.5067978.0000343 2.0816879l-10.5465392 10.8826981c-.5748902.5748902-1.5068322.5748139-2.081688-.0000381z" fill="#feda6f" data-original="#feda6f" style=""/></g></svg>
