<?xml version="1.0"?>
<svg xmlns="http://www.w3.org/2000/svg" xmlns:xlink="http://www.w3.org/1999/xlink" xmlns:svgjs="http://svgjs.com/svgjs" version="1.1" width="512" height="512" x="0" y="0" viewBox="0 0 512 512" style="enable-background:new 0 0 512 512" xml:space="preserve" class=""><g>
<circle xmlns="http://www.w3.org/2000/svg" style="" cx="256" cy="256" r="256" fill="#6f48bf" data-original="#ffd15d" class=""/>
<path xmlns="http://www.w3.org/2000/svg" style="" d="M355.197,492.066c68.322-28.744,121.534-86.283,144.477-157.422L325.165,160.135l-102.207,8.232  l-95.103,73.494l52.165,52.165l-5.808,17.056L355.197,492.066z" fill="#421198" data-original="#f9b54c" class=""/>
<path xmlns="http://www.w3.org/2000/svg" style="" d="M341.333,241.864v-42.696h-24.038c-2.017-7.833-5.132-15.222-9.147-22.016l17.017-17.017  l-30.191-30.191l-17.017,17.017c-6.794-4.013-14.183-7.13-22.016-9.147v-24.036h-42.694v24.038  c-7.833,2.017-15.222,5.132-22.016,9.147l-17.017-17.017l-30.191,30.189l17.017,17.017c-4.013,6.794-7.128,14.181-9.145,22.014  h-24.038v42.696h24.036c2.015,7.835,5.132,15.222,9.145,22.018l-17.015,17.015l30.191,30.189l17.015-17.013  c6.794,4.013,14.184,7.132,22.018,9.147v24.038h42.696v-24.038c7.833-2.017,15.22-5.132,22.014-9.147l17.018,17.018l30.191-30.191  l-17.018-17.018c4.015-6.796,7.13-14.184,9.147-22.018h24.038V241.864z M234.594,259.331c-21.437,0-38.814-17.379-38.814-38.814  s17.377-38.814,38.814-38.814s38.814,17.379,38.814,38.814S256.031,259.331,234.594,259.331z" fill="#d80e70" data-original="#324a5e" class=""/>
<path xmlns="http://www.w3.org/2000/svg" style="" d="M341.333,241.864v-42.696h-24.038c-2.017-7.833-5.132-15.222-9.147-22.016l17.017-17.017  l-30.191-30.191l-17.017,17.017c-6.794-4.013-14.183-7.13-22.016-9.145v-24.038h-22.352v67.949c0.334-0.009,0.667-0.026,1.005-0.026  c21.437,0,38.814,17.377,38.814,38.814s-17.377,38.814-38.814,38.814c-0.338,0-0.671-0.017-1.005-0.026v67.951h22.352v-24.036  c7.833-2.017,15.22-5.132,22.014-9.147l17.018,17.02l30.191-30.191l-17.018-17.018c4.015-6.796,7.13-14.184,9.147-22.018H341.333z" fill="#a60068" data-original="#2b3b4e" class=""/>
<circle xmlns="http://www.w3.org/2000/svg" style="" cx="335.3" cy="323.232" r="89.643" fill="#4cdbc4" data-original="#4cdbc4" class=""/>
<path xmlns="http://www.w3.org/2000/svg" style="" d="M424.943,323.232c0-49.509-40.134-89.643-89.643-89.643v179.286  C384.809,412.875,424.943,372.741,424.943,323.232z" fill="#3cbfa6" data-original="#3cbfa6" class=""/>
<polygon xmlns="http://www.w3.org/2000/svg" style="" points="311.453,373.913 277.061,339.523 294.126,322.457 311.453,339.784 380.495,270.739   397.56,287.806 " fill="#ffffff" data-original="#ffffff" class=""/>
<polygon xmlns="http://www.w3.org/2000/svg" style="" points="380.495,270.739 335.3,315.935 335.3,350.065 397.56,287.806 " fill="#e6f3ff" data-original="#e6f3ff" class=""/>
<g xmlns="http://www.w3.org/2000/svg">
</g>
<g xmlns="http://www.w3.org/2000/svg">
</g>
<g xmlns="http://www.w3.org/2000/svg">
</g>
<g xmlns="http://www.w3.org/2000/svg">
</g>
<g xmlns="http://www.w3.org/2000/svg">
</g>
<g xmlns="http://www.w3.org/2000/svg">
</g>
<g xmlns="http://www.w3.org/2000/svg">
</g>
<g xmlns="http://www.w3.org/2000/svg">
</g>
<g xmlns="http://www.w3.org/2000/svg">
</g>
<g xmlns="http://www.w3.org/2000/svg">
</g>
<g xmlns="http://www.w3.org/2000/svg">
</g>
<g xmlns="http://www.w3.org/2000/svg">
</g>
<g xmlns="http://www.w3.org/2000/svg">
</g>
<g xmlns="http://www.w3.org/2000/svg">
</g>
<g xmlns="http://www.w3.org/2000/svg">
</g>
</g></svg>
