<?xml version="1.0"?>
<svg xmlns="http://www.w3.org/2000/svg" xmlns:xlink="http://www.w3.org/1999/xlink" xmlns:svgjs="http://svgjs.com/svgjs" version="1.1" width="512" height="512" x="0" y="0" viewBox="0 0 256 256" style="enable-background:new 0 0 512 512" xml:space="preserve" class=""><g><g xmlns="http://www.w3.org/2000/svg"><path d="m32.035 202.588c-7.535 0-13.665-6.13-13.665-13.665v-123.776c0-7.535 6.13-13.665 13.665-13.665h191.931c7.535 0 13.665 6.13 13.665 13.665v123.776c0 7.535-6.13 13.665-13.665 13.665z" fill="#b39ddd" data-original="#63bce7" style="" class=""/><path d="m229.221 65.171v123.728c0 2.916-2.364 5.28-5.28 5.28h-191.882c-2.916 0-5.28-2.364-5.28-5.28v-123.728c0-2.916 2.364-5.28 5.28-5.28h191.882c2.916 0 5.28 2.364 5.28 5.28z" fill="#f0eaf9" data-original="#f8af23" style="" class=""/><g><path d="m37.446 188.899v-123.728c0-2.916 2.364-5.28 5.28-5.28h-10.667c-2.916 0-5.28 2.364-5.28 5.28v123.728c0 2.916 2.364 5.28 5.28 5.28h10.667c-2.916 0-5.28-2.364-5.28-5.28z" fill="#b39ddd" data-original="#f87023" style="" class=""/></g><g><path d="m218.554 188.899v-123.728c0-2.916-2.364-5.28-5.28-5.28h10.667c2.916 0 5.28 2.364 5.28 5.28v123.728c0 2.916-2.364 5.28-5.28 5.28h-10.667c2.916 0 5.28-2.364 5.28-5.28z" fill="#f0eaf9" data-original="#f8d323" style="" class=""/></g><path d="m128 202.588h-119.333l3.053 7.024c2.751 6.329 8.995 10.423 15.896 10.423h100.384 100.385c6.901 0 13.145-4.094 15.896-10.423l3.053-7.024z" fill="#9e9e9e" data-original="#9e9e9e" style="" class=""/><g><path d="m22.386 209.612-3.053-7.024h-10.666l3.053 7.024c2.751 6.329 8.995 10.423 15.896 10.423h10.667c-6.902 0-13.146-4.094-15.897-10.423z" fill="#707070" data-original="#707070" style="" class=""/></g><g><path d="m233.614 209.612 3.053-7.024h10.667l-3.053 7.024c-2.751 6.329-8.995 10.423-15.896 10.423h-10.667c6.901 0 13.145-4.094 15.896-10.423z" fill="#cecece" data-original="#cecece" style=""/></g><path d="m82.442 202.588 4.22 5.388c1.649 2.106 4.175 3.336 6.85 3.336h68.975c2.675 0 5.201-1.23 6.85-3.336l4.221-5.388z" fill="#e976af" data-original="#f46275" style="" class=""/><path d="m238.553 133.849h-110.422c-4.849 0-8.78-3.931-8.78-8.78v-92.079c0-4.849 3.931-8.78 8.78-8.78h110.422c4.849 0 8.78 3.931 8.78 8.78v92.079c0 4.849-3.931 8.78-8.78 8.78z" fill="#e976af" data-original="#f46275" style="" class=""/><path d="m247.333 32.993c0-4.851-3.932-8.783-8.783-8.783h-110.416c-4.851 0-8.783 3.932-8.783 8.783v15.284h127.982z" fill="#9e9e9e" data-original="#9e9e9e" style="" class=""/><g><path d="m238.553 24.21h-10.667c4.849 0 8.78 3.931 8.78 8.78v92.079c0 4.849-3.931 8.78-8.78 8.78h10.667c4.849 0 8.78-3.931 8.78-8.78v-92.079c0-4.849-3.931-8.78-8.78-8.78z" fill="#d80e70" data-original="#f48875" style="" class=""/></g><g><path d="m238.55 24.21h-10.667c4.851 0 8.783 3.932 8.783 8.783v15.284h10.667v-15.284c0-4.85-3.932-8.783-8.783-8.783z" fill="#cecece" data-original="#cecece" style=""/></g><g fill="#63bce7"><g><circle cx="135.029" cy="36.244" r="4.011" fill="#d80e70" data-original="#000000" style="" class=""/><circle cx="150.479" cy="36.244" r="4.011" fill="#d80e70" data-original="#000000" style="" class=""/><circle cx="165.929" cy="36.244" r="4.011" fill="#d80e70" data-original="#000000" style="" class=""/></g><path d="m232.61 39.563h-50.755c-1.681 0-3.056-1.375-3.056-3.056 0-1.681 1.375-3.056 3.056-3.056h50.755c1.681 0 3.056 1.375 3.056 3.056 0 1.68-1.375 3.056-3.056 3.056z" fill="#b39ddd" data-original="#63bce7" style="" class=""/></g><g><path d="m204.441 115.755-27.789-14.583v-26.698l27.789-14.583z" fill="#b39ddd" data-original="#63bce7" style="" class=""/><path d="m204.441 59.891h6.983v55.864h-6.983z" fill="#f0eaf9" data-original="#f8af23" style="" class=""/><path d="m153.28 74.474h23.372v26.709h-23.372z" fill="#f0eaf9" data-original="#f8af23" style="" class=""/><g fill="#63bce7"><path d="m146.867 81.143h6.413v13.36h-6.413z" fill="#b39ddd" data-original="#63bce7" style="" class=""/><path d="m159.811 101.184h10.309v17.882h-10.309z" fill="#b39ddd" data-original="#63bce7" style="" class=""/></g></g><g fill="#f46275"><circle cx="42.885" cy="73.894" r="5.135" fill="#e976af" data-original="#f46275" style="" class=""/><circle cx="61.75" cy="73.894" r="5.135" fill="#e976af" data-original="#f46275" style="" class=""/><circle cx="80.615" cy="73.894" r="5.135" fill="#e976af" data-original="#f46275" style="" class=""/></g><g><path d="m119.351 149.133h99.204v32.112h-99.204z" fill="#b39ddd" data-original="#63bce7" style="" class=""/><g fill="#3f3679"><path d="m245.656 210.21 3.053-7.024c.202-.464.156-.998-.121-1.42-.277-.423-.749-.678-1.254-.678h-14.352c3.722-2.766 6.149-7.182 6.149-12.165v-53.603c5.399-.302 9.703-4.777 9.703-10.251v-76.792-15.284-.003c0-5.668-4.612-10.28-10.28-10.28h-.003-110.417-.003c-5.668 0-10.28 4.611-10.28 10.28v.003 15.284 1.705h-85.816c-8.362 0-15.165 6.803-15.165 15.165v123.776c0 4.983 2.427 9.399 6.149 12.165h-14.352c-.505 0-.977.255-1.254.678-.277.422-.323.957-.121 1.42l3.053 7.024c2.99 6.88 9.77 11.325 17.271 11.325h200.77c7.5.001 14.28-4.445 17.27-11.325zm-7.103-77.861h-110.422c-4.014 0-7.28-3.266-7.28-7.28v-75.292h124.982v75.292c0 4.014-3.266 7.28-7.28 7.28zm-110.422 3h99.59v53.55c0 2.084-1.696 3.78-3.78 3.78h-191.882c-2.084 0-3.78-1.696-3.78-3.78v-123.728c0-2.084 1.696-3.78 3.78-3.78h85.792v63.678c0 5.669 4.611 10.28 10.28 10.28zm110.419-109.639c4.016 0 7.283 3.267 7.283 7.283v13.784h-124.982v-13.784c0-4.016 3.267-7.283 7.283-7.283zm-218.68 163.214v-123.777c0-6.708 5.457-12.165 12.165-12.165h85.816v5.409h-85.792c-3.739 0-6.78 3.042-6.78 6.78v123.728c0 3.738 3.042 6.78 6.78 6.78h191.882c3.739 0 6.78-3.042 6.78-6.78v-53.55h5.409v53.575c0 6.708-5.457 12.165-12.165 12.165h-50.407-91.116-50.407c-6.708-.001-12.165-5.458-12.165-12.165zm150.608 15.164-2.321 2.963c-1.375 1.754-3.441 2.76-5.669 2.76h-68.975c-2.229 0-4.295-1.006-5.669-2.76l-2.321-2.963zm57.907 14.448h-200.77c-4.787 0-9.22-2.157-12.18-5.724h29.14c.829 0 1.5-.671 1.5-1.5s-.671-1.5-1.5-1.5h-31.097c-.132-.263-.264-.526-.382-.798l-2.141-4.926h21.081 49.677l3.77 4.813c1.947 2.485 4.874 3.911 8.031 3.911h68.975c3.157 0 6.084-1.425 8.031-3.911l3.77-4.813h49.677 21.081l-2.141 4.926c-.118.272-.25.535-.382.798h-31.098c-.829 0-1.5.671-1.5 1.5s.671 1.5 1.5 1.5h29.14c-2.962 3.567-7.395 5.724-12.182 5.724z" fill="#6f48bf" data-original="#3f3679" style="" class=""/><path d="m65.22 209.812h-10.375c-.829 0-1.5.671-1.5 1.5s.671 1.5 1.5 1.5h10.375c.829 0 1.5-.671 1.5-1.5s-.672-1.5-1.5-1.5z" fill="#6f48bf" data-original="#3f3679" style="" class=""/><path d="m201.155 209.812h-10.375c-.829 0-1.5.671-1.5 1.5s.671 1.5 1.5 1.5h10.375c.829 0 1.5-.671 1.5-1.5s-.671-1.5-1.5-1.5z" fill="#6f48bf" data-original="#3f3679" style="" class=""/><path d="m135.029 41.755c3.039 0 5.511-2.472 5.511-5.511s-2.472-5.511-5.511-5.511-5.511 2.472-5.511 5.511 2.472 5.511 5.511 5.511zm0-8.022c1.385 0 2.511 1.126 2.511 2.511 0 1.384-1.126 2.511-2.511 2.511s-2.511-1.126-2.511-2.511 1.126-2.511 2.511-2.511z" fill="#6f48bf" data-original="#3f3679" style="" class=""/><path d="m150.479 41.755c3.039 0 5.511-2.472 5.511-5.511s-2.472-5.511-5.511-5.511-5.511 2.472-5.511 5.511 2.472 5.511 5.511 5.511zm0-8.022c1.385 0 2.511 1.126 2.511 2.511 0 1.384-1.126 2.511-2.511 2.511s-2.511-1.126-2.511-2.511 1.126-2.511 2.511-2.511z" fill="#6f48bf" data-original="#3f3679" style="" class=""/><path d="m165.929 41.755c3.039 0 5.511-2.472 5.511-5.511s-2.472-5.511-5.511-5.511-5.511 2.472-5.511 5.511 2.472 5.511 5.511 5.511zm0-8.022c1.385 0 2.511 1.126 2.511 2.511 0 1.384-1.126 2.511-2.511 2.511s-2.511-1.126-2.511-2.511 1.126-2.511 2.511-2.511z" fill="#6f48bf" data-original="#3f3679" style="" class=""/><path d="m181.856 41.063h50.754c2.512 0 4.556-2.044 4.556-4.556s-2.044-4.556-4.556-4.556h-50.754c-2.512 0-4.556 2.044-4.556 4.556s2.044 4.556 4.556 4.556zm0-6.113h50.754c.858 0 1.556.698 1.556 1.556s-.698 1.556-1.556 1.556h-50.754c-.858 0-1.556-.698-1.556-1.556s.698-1.556 1.556-1.556z" fill="#6f48bf" data-original="#3f3679" style="" class=""/><path d="m211.424 58.391h-6.983c-.253 0-.488.069-.697.179v-.007l-27.462 14.411h-23.002c-.829 0-1.5.671-1.5 1.5v5.169h-4.913c-.829 0-1.5.671-1.5 1.5v13.36c0 .829.671 1.5 1.5 1.5h4.913v5.18c0 .829.671 1.5 1.5 1.5h5.031v16.382c0 .829.671 1.5 1.5 1.5h10.309c.829 0 1.5-.671 1.5-1.5v-16.382h4.683l27.441 14.399v-.007c.209.111.444.179.697.179h6.983c.829 0 1.5-.671 1.5-1.5v-55.863c0-.828-.671-1.5-1.5-1.5zm-63.057 34.612v-10.36h3.413v10.36zm6.413 1.5v-13.36-5.169h20.372v23.709h-5.031-10.309-5.031v-5.18zm13.841 23.063h-7.309v-14.882h7.309zm9.531-42.185 24.79-13.009v50.902l-24.79-13.008zm31.772 38.874h-3.983v-52.864h3.983z" fill="#6f48bf" data-original="#3f3679" style="" class=""/><path d="m49.521 73.895c0-3.659-2.977-6.636-6.636-6.636s-6.635 2.977-6.635 6.636 2.977 6.635 6.635 6.635c3.659 0 6.636-2.977 6.636-6.635zm-10.271 0c0-2.005 1.631-3.636 3.635-3.636 2.005 0 3.636 1.631 3.636 3.636 0 2.004-1.631 3.635-3.636 3.635-2.004 0-3.635-1.631-3.635-3.635z" fill="#6f48bf" data-original="#3f3679" style="" class=""/><path d="m61.75 80.53c3.659 0 6.635-2.977 6.635-6.635 0-3.659-2.977-6.636-6.635-6.636s-6.635 2.977-6.635 6.636c0 3.658 2.976 6.635 6.635 6.635zm0-10.271c2.004 0 3.635 1.631 3.635 3.636 0 2.004-1.631 3.635-3.635 3.635s-3.635-1.631-3.635-3.635c0-2.005 1.631-3.636 3.635-3.636z" fill="#6f48bf" data-original="#3f3679" style="" class=""/><path d="m80.615 80.53c3.659 0 6.635-2.977 6.635-6.635 0-3.659-2.977-6.636-6.635-6.636-3.659 0-6.636 2.977-6.636 6.636 0 3.658 2.977 6.635 6.636 6.635zm0-10.271c2.004 0 3.635 1.631 3.635 3.636 0 2.004-1.631 3.635-3.635 3.635-2.005 0-3.636-1.631-3.636-3.635 0-2.005 1.631-3.636 3.636-3.636z" fill="#6f48bf" data-original="#3f3679" style="" class=""/><path d="m105.667 96.259h-62.782c-.829 0-1.5.671-1.5 1.5s.671 1.5 1.5 1.5h62.781c.829 0 1.5-.671 1.5-1.5s-.671-1.5-1.499-1.5z" fill="#6f48bf" data-original="#3f3679" style="" class=""/><path d="m105.667 108.625h-62.782c-.829 0-1.5.671-1.5 1.5s.671 1.5 1.5 1.5h62.781c.829 0 1.5-.671 1.5-1.5s-.671-1.5-1.499-1.5z" fill="#6f48bf" data-original="#3f3679" style="" class=""/><path d="m105.667 120.99h-62.782c-.829 0-1.5.671-1.5 1.5s.671 1.5 1.5 1.5h62.781c.829 0 1.5-.671 1.5-1.5s-.671-1.5-1.499-1.5z" fill="#6f48bf" data-original="#3f3679" style="" class=""/><path d="m105.667 133.356h-62.782c-.829 0-1.5.671-1.5 1.5s.671 1.5 1.5 1.5h62.781c.829 0 1.5-.671 1.5-1.5s-.671-1.5-1.499-1.5z" fill="#6f48bf" data-original="#3f3679" style="" class=""/><path d="m105.667 145.722h-62.782c-.829 0-1.5.671-1.5 1.5s.671 1.5 1.5 1.5h62.781c.829 0 1.5-.671 1.5-1.5s-.671-1.5-1.499-1.5z" fill="#6f48bf" data-original="#3f3679" style="" class=""/><path d="m105.667 158.087h-62.782c-.829 0-1.5.671-1.5 1.5s.671 1.5 1.5 1.5h62.781c.829 0 1.5-.671 1.5-1.5s-.671-1.5-1.499-1.5z" fill="#6f48bf" data-original="#3f3679" style="" class=""/><path d="m105.667 170.453h-62.782c-.829 0-1.5.671-1.5 1.5s.671 1.5 1.5 1.5h62.781c.829 0 1.5-.671 1.5-1.5s-.671-1.5-1.499-1.5z" fill="#6f48bf" data-original="#3f3679" style="" class=""/><path d="m25.89 230.29h-18.5c-.829 0-1.5.671-1.5 1.5s.671 1.5 1.5 1.5h18.5c.829 0 1.5-.671 1.5-1.5s-.672-1.5-1.5-1.5z" fill="#6f48bf" data-original="#3f3679" style="" class=""/><path d="m248.61 230.29h-18.5c-.829 0-1.5.671-1.5 1.5s.671 1.5 1.5 1.5h18.5c.829 0 1.5-.671 1.5-1.5s-.671-1.5-1.5-1.5z" fill="#6f48bf" data-original="#3f3679" style="" class=""/><path d="m215.337 230.29h-174.674c-.829 0-1.5.671-1.5 1.5s.671 1.5 1.5 1.5h174.674c.829 0 1.5-.671 1.5-1.5s-.671-1.5-1.5-1.5z" fill="#6f48bf" data-original="#3f3679" style="" class=""/><path d="m7.39 221.536h7.944c.829 0 1.5-.671 1.5-1.5s-.671-1.5-1.5-1.5h-7.944c-.829 0-1.5.671-1.5 1.5s.671 1.5 1.5 1.5z" fill="#6f48bf" data-original="#3f3679" style="" class=""/><path d="m240.667 218.536c-.829 0-1.5.671-1.5 1.5s.671 1.5 1.5 1.5h7.944c.829 0 1.5-.671 1.5-1.5s-.671-1.5-1.5-1.5z" fill="#6f48bf" data-original="#3f3679" style="" class=""/><path d="m117.851 181.245c0 .829.671 1.5 1.5 1.5h99.203c.829 0 1.5-.671 1.5-1.5v-32.112c0-.829-.671-1.5-1.5-1.5h-99.203c-.829 0-1.5.671-1.5 1.5zm3-30.612h96.203v29.112h-96.203z" fill="#6f48bf" data-original="#3f3679" style="" class=""/></g></g></g></g></svg>
