<?xml version="1.0"?>
<svg xmlns="http://www.w3.org/2000/svg" xmlns:xlink="http://www.w3.org/1999/xlink" xmlns:svgjs="http://svgjs.com/svgjs" version="1.1" width="512" height="512" x="0" y="0" viewBox="0 0 128 128" style="enable-background:new 0 0 512 512" xml:space="preserve" class=""><g><g xmlns="http://www.w3.org/2000/svg" id="Circle_Grid" data-name="Circle Grid"><circle cx="64" cy="64" fill="#421198" r="64" data-original="#ef5261" style="" class=""/></g><g xmlns="http://www.w3.org/2000/svg" id="icon"><path d="m32.783 34.53h58.685v3h-58.685z" fill="#f0eaf9" transform="matrix(.988 -.152 .152 .988 -4.764 9.885)" data-original="#eeefee" style="" class=""/><path d="m33.124 36.029a4.31 4.31 0 0 1 4.31 4.31v6.815a0 0 0 0 1 0 0h-8.62a0 0 0 0 1 0 0v-6.815a4.31 4.31 0 0 1 4.31-4.31z" fill="#d983ae" data-original="#62667c" style="" class=""/><rect fill="#f0eaf9" height="55.5" rx="4" width="89.75" x="19.125" y="44.514" data-original="#eeefee" style="" class=""/><circle cx="90.856" cy="31.602" fill="#a60068" r="3.616" data-original="#575b6d" style="" class=""/><circle cx="44.667" cy="72.264" fill="#d9c9ef" r="19.333" data-original="#dbd8dd" style="" class=""/><path d="m44.667 88.6a16.333 16.333 0 1 1 16.333-16.336 16.352 16.352 0 0 1 -16.333 16.336z" fill="#d983ae" data-original="#62667c" style="" class=""/><rect fill="#421198" height="1.792" rx=".896" width="13.75" x="37.792" y="62.201" data-original="#828a9e" style="" class=""/><rect fill="#421198" height="1.792" rx=".896" width="21.75" x="33.792" y="66.785" data-original="#828a9e" style="" class=""/><rect fill="#421198" height="1.792" rx=".896" width="27.75" x="30.792" y="71.368" data-original="#828a9e" style="" class=""/><rect fill="#421198" height="1.792" rx=".896" width="21.75" x="33.792" y="75.951" data-original="#828a9e" style="" class=""/><rect fill="#421198" height="1.792" rx=".896" width="13.75" x="37.792" y="80.535" data-original="#828a9e" style="" class=""/><rect fill="#d9c9ef" height="11.591" rx="2" width="32.667" x="70" y="52.93" data-original="#dbd8dd" style="" class=""/><path d="m70 58.16h32.667v1.133h-32.667z" fill="#bbbbcd" data-original="#bbbbcd" style="" class=""/><path d="m98.683 58.16h3.3v1.133h-3.3z" fill="#bbbbcd" transform="matrix(0 1 -1 0 159.06 -41.607)" data-original="#bbbbcd" style="" class=""/><path d="m91.038 58.16h11.591v1.133h-11.591z" fill="#421198" transform="matrix(0 1 -1 0 155.56 -38.107)" data-original="#ef5261" style="" class=""/><g fill="#bbbbcd"><path d="m91.683 58.16h3.3v1.133h-3.3z" transform="matrix(0 1 -1 0 152.06 -34.607)" fill="#bbbbcd" data-original="#bbbbcd" style="" class=""/><path d="m88.183 58.16h3.3v1.133h-3.3z" transform="matrix(0 1 -1 0 148.56 -31.107)" fill="#bbbbcd" data-original="#bbbbcd" style="" class=""/><path d="m84.683 58.16h3.3v1.133h-3.3z" transform="matrix(0 1 -1 0 145.06 -27.607)" fill="#bbbbcd" data-original="#bbbbcd" style="" class=""/><path d="m81.183 58.16h3.3v1.133h-3.3z" transform="matrix(0 1 -1 0 141.56 -24.107)" fill="#bbbbcd" data-original="#bbbbcd" style="" class=""/><path d="m77.683 58.16h3.3v1.133h-3.3z" transform="matrix(0 1 -1 0 138.06 -20.607)" fill="#bbbbcd" data-original="#bbbbcd" style="" class=""/><path d="m74.183 58.16h3.3v1.133h-3.3z" transform="matrix(0 1 -1 0 134.56 -17.107)" fill="#bbbbcd" data-original="#bbbbcd" style="" class=""/><path d="m70.683 58.16h3.3v1.133h-3.3z" transform="matrix(0 1 -1 0 131.06 -13.607)" fill="#bbbbcd" data-original="#bbbbcd" style="" class=""/></g><path d="m83.548 83.094a6.25 6.25 0 1 1 -7.31-6.15 5.367 5.367 0 0 1 1.06-.1 5.3 5.3 0 0 1 1.06.1 6.243 6.243 0 0 1 5.19 6.15z" fill="#d983ae" data-original="#62667c" style="" class=""/><path d="m78.358 76.944v6.55a1.06 1.06 0 1 1 -2.12 0v-6.55a5.367 5.367 0 0 1 1.06-.1 5.3 5.3 0 0 1 1.06.1z" fill="#421198" data-original="#828a9e" style="" class=""/><path d="m101.618 83.094a6.25 6.25 0 1 1 -7.31-6.15 5.367 5.367 0 0 1 1.06-.1 5.3 5.3 0 0 1 1.06.1 6.243 6.243 0 0 1 5.19 6.15z" fill="#d983ae" data-original="#62667c" style="" class=""/><path d="m96.428 76.944v6.55a1.06 1.06 0 1 1 -2.12 0v-6.55a5.367 5.367 0 0 1 1.06-.1 5.3 5.3 0 0 1 1.06.1z" fill="#421198" data-original="#828a9e" style="" class=""/></g></g></svg>
