<?xml version="1.0"?>
<svg xmlns="http://www.w3.org/2000/svg" xmlns:xlink="http://www.w3.org/1999/xlink" xmlns:svgjs="http://svgjs.com/svgjs" version="1.1" width="512" height="512" x="0" y="0" viewBox="0 0 512 512" style="enable-background:new 0 0 512 512" xml:space="preserve" class=""><g><g xmlns="http://www.w3.org/2000/svg"><g><g><g><g><g><g><g><g><circle cx="256" cy="256" fill="#6f48bf" r="256" data-original="#ffce00" style="" class=""/></g></g></g></g></g></g></g></g><path d="m512 256c0-32.538-6.07-63.657-17.14-92.289l-68.308-68.308-341.104 283.747 129.59 129.59c13.338 2.145 27.02 3.26 40.962 3.26 141.385 0 256-114.615 256-256z" fill="#421198" data-original="#ffa300" style="" class=""/><g><path d="m85.448 95.403h341.103v52.235h-341.103z" fill="#b39ddd" data-original="#7584f2" style="" class=""/></g><g><path d="m256.121 95.403h170.431v52.235h-170.431z" fill="#5628b4" data-original="#606aea" style="" class=""/></g><g><path d="m85.448 142.752h341.103v236.398h-341.103z" fill="#ffffff" data-original="#ffffff" style="" class=""/></g><g><path d="m256.121 142.751h170.431v236.398h-170.431z" fill="#e9edf5" data-original="#e9edf5" style="" class=""/></g><g><circle cx="107.699" cy="118.426" fill="#a60068" r="11.728" data-original="#4855b7" style="" class=""/></g><g><circle cx="171.554" cy="118.426" fill="#a60068" r="11.728" data-original="#4855b7" style="" class=""/></g><g><circle cx="139.626" cy="118.426" fill="#a60068" r="11.728" data-original="#4855b7" style="" class=""/></g><g><g><path d="m216.333 175.319h185.802v100.365h-185.802z" fill="#a3d4ff" data-original="#a3d4ff" style="" class=""/></g><g><path d="m256.121 175.319h146.014v100.365h-146.014z" fill="#65b1fc" data-original="#65b1fc" style="" class=""/></g><g><path d="m344.351 191.322-48.771 67.97-31.144-49.176-48.103 63.847v22.116h185.802v-31.241z" fill="#fe6a16" data-original="#fe6a16" style="" class=""/></g><g><path d="m402.135 264.837-57.784-73.515-48.771 67.97-31.144-49.176-8.315 11.037v74.926h146.014z" fill="#f24500" data-original="#f24500" style="" class=""/></g><g><circle cx="297.758" cy="209.642" fill="#ff9500" r="18.32" data-original="#ff9500" style="" class=""/></g></g><g><path d="m100.168 175.319h100.669v29.647h-100.669z" fill="#cdd2e1" data-original="#cdd2e1" style="" class=""/></g><g><path d="m100.168 220.876h100.669v29.647h-100.669z" fill="#cdd2e1" data-original="#cdd2e1" style="" class=""/></g><g><path d="m100.168 266.432h100.669v29.647h-100.669z" fill="#cdd2e1" data-original="#cdd2e1" style="" class=""/></g><g><path d="m100.168 311.989h301.967v29.647h-301.967z" fill="#cdd2e1" data-original="#cdd2e1" style="" class=""/></g><g><path d="m256.121 311.988h146.014v29.647h-146.014z" fill="#afb4c8" data-original="#afb4c8" style="" class=""/></g></g></g></svg>
